<svg id="svg" version="1.1" xmlns="http://www.w3.org/2000/svg" xmlns:xlink="http://www.w3.org/1999/xlink" width="400" height="225" viewBox="0, 0, 400,225"><g id="svgg"><path id="path0" d="M212.872 54.394 C 212.788 54.479,212.718 69.120,212.718 86.929 L 212.718 119.309 274.676 119.248 L 336.635 119.187 339.223 118.480 C 354.483 114.313,363.879 102.225,363.869 86.775 C 363.865 80.967,363.644 79.791,361.460 73.945 C 358.151 65.088,348.687 57.364,338.098 54.877 L 335.959 54.375 274.493 54.307 C 240.687 54.270,212.957 54.310,212.872 54.394 M88.014 55.146 C 64.645 58.153,45.543 74.267,38.647 96.792 C 36.405 104.115,36.132 106.825,36.130 121.778 C 36.128 136.577,36.261 138.128,38.171 145.526 C 43.224 165.097,59.785 181.707,79.572 187.051 C 82.746 187.909,83.019 187.969,85.821 188.430 C 93.293 189.660,152.785 189.735,160.045 188.523 C 189.503 183.606,209.557 160.125,210.173 129.826 L 210.300 123.580 166.658 123.523 L 123.016 123.467 123.016 121.441 L 123.016 119.415 166.658 119.358 L 210.300 119.301 210.182 113.730 C 209.995 104.953,208.652 98.142,205.755 91.277 C 197.370 71.409,179.648 57.962,158.132 55.142 C 153.245 54.502,92.994 54.505,88.014 55.146 M212.824 123.856 C 212.764 124.013,212.741 138.678,212.773 156.443 L 212.831 188.745 273.157 188.745 C 337.706 188.745,335.660 188.779,339.899 187.635 C 359.134 182.441,369.296 161.372,361.348 143.163 C 358.043 135.591,351.035 128.704,343.950 126.066 C 341.625 125.200,339.791 124.635,337.873 124.194 L 335.734 123.702 274.333 123.636 C 224.917 123.584,212.911 123.627,212.824 123.856 " stroke="none" fill="#fbfbfb" fill-rule="evenodd"></path><path id="path1" d="M0.000 112.549 L 0.000 225.098 200.000 225.098 L 400.000 225.098 400.000 112.549 L 400.000 0.000 200.000 0.000 L 0.000 0.000 0.000 112.549 M335.959 54.185 C 336.579 54.316,337.693 54.541,338.436 54.684 C 347.545 56.446,356.392 63.299,360.801 72.013 C 367.784 85.809,363.635 104.434,351.744 112.664 C 351.388 112.910,350.822 113.335,350.486 113.608 C 347.723 115.852,342.593 118.032,337.535 119.111 L 335.059 119.640 273.832 119.640 L 212.606 119.640 212.548 86.717 L 212.491 53.795 273.663 53.871 C 315.511 53.923,335.190 54.022,335.959 54.185 M155.322 54.589 C 157.610 54.777,160.293 55.089,161.283 55.283 C 163.391 55.696,167.612 56.711,168.261 56.961 C 168.509 57.056,169.420 57.357,170.287 57.629 C 171.154 57.902,172.167 58.259,172.538 58.424 C 172.909 58.588,173.872 58.992,174.676 59.321 C 183.379 62.878,193.904 71.303,198.987 78.780 C 199.173 79.053,199.561 79.596,199.851 79.987 C 200.504 80.869,201.774 82.833,201.985 83.286 C 202.072 83.472,202.357 83.979,202.619 84.412 C 203.469 85.815,204.861 88.542,205.434 89.927 C 205.742 90.670,206.130 91.581,206.298 91.953 C 206.774 93.008,208.141 97.178,208.622 99.043 C 210.011 104.428,210.355 107.442,210.355 114.237 L 210.355 119.640 166.742 119.697 L 123.129 119.754 123.129 121.554 L 123.129 123.354 166.814 123.354 L 210.499 123.354 210.403 129.600 C 210.099 149.422,202.028 165.938,187.169 177.141 C 186.179 177.888,185.267 178.576,185.144 178.670 C 184.325 179.292,181.445 181.099,180.191 181.778 C 179.696 182.046,178.720 182.576,178.023 182.956 C 171.823 186.331,163.972 188.545,155.431 189.325 C 150.036 189.819,90.110 189.455,86.888 188.910 C 83.631 188.359,80.940 187.806,80.135 187.522 C 79.826 187.413,78.661 187.052,77.546 186.720 C 76.432 186.387,75.201 185.973,74.811 185.798 C 74.421 185.624,74.016 185.478,73.911 185.474 C 73.806 185.469,73.315 185.270,72.819 185.031 C 72.324 184.792,71.838 184.593,71.739 184.588 C 71.370 184.573,66.962 182.296,64.754 180.981 C 61.014 178.752,56.858 175.497,53.554 172.207 C 49.555 168.226,47.743 165.931,44.220 160.383 C 43.214 158.798,42.007 156.441,40.704 153.517 C 39.776 151.436,39.961 151.923,38.733 148.340 C 38.242 146.908,37.328 143.353,36.822 140.912 C 36.491 139.316,36.345 138.162,35.770 132.625 C 35.620 131.177,35.566 126.558,35.627 120.357 C 35.740 108.799,36.026 105.947,37.809 98.593 C 40.945 85.659,50.665 72.143,62.352 64.467 C 67.722 60.941,71.336 59.198,77.659 57.084 C 80.850 56.018,86.243 54.984,90.490 54.624 C 96.195 54.141,149.501 54.113,155.322 54.589 M336.799 123.784 C 363.500 128.279,373.698 161.035,354.233 179.783 C 351.142 182.760,348.183 184.707,343.838 186.622 C 338.012 189.189,340.337 189.112,271.131 189.035 L 212.606 188.970 212.548 156.162 L 212.491 123.354 273.366 123.354 C 332.272 123.354,334.324 123.368,336.799 123.784 " stroke="none" fill="#146c9c" fill-rule="evenodd"></path><path id="path2" d="M212.718 54.192 C 212.718 54.345,253.507 54.344,311.874 54.191 C 323.883 54.160,306.486 54.109,273.213 54.079 C 239.941 54.048,212.718 54.100,212.718 54.192 M334.102 54.404 C 334.319 54.461,334.674 54.461,334.890 54.404 C 335.107 54.347,334.930 54.301,334.496 54.301 C 334.063 54.301,333.886 54.347,334.102 54.404 M108.441 54.643 C 116.519 54.675,129.738 54.675,137.817 54.643 C 145.895 54.610,139.285 54.583,123.129 54.583 C 106.972 54.583,100.363 54.610,108.441 54.643 M88.070 55.079 C 88.286 55.136,88.641 55.136,88.858 55.079 C 89.074 55.023,88.897 54.976,88.464 54.976 C 88.030 54.976,87.853 55.023,88.070 55.079 M157.625 55.079 C 157.842 55.136,158.196 55.136,158.413 55.079 C 158.630 55.023,158.452 54.976,158.019 54.976 C 157.586 54.976,157.409 55.023,157.625 55.079 M352.954 62.189 C 352.954 62.223,353.739 63.008,354.699 63.934 L 356.443 65.616 354.761 63.872 C 353.198 62.251,352.954 62.024,352.954 62.189 M192.797 72.032 C 193.906 73.146,194.864 74.057,194.926 74.057 C 194.988 74.057,194.131 73.146,193.022 72.032 C 191.913 70.917,190.955 70.006,190.893 70.006 C 190.831 70.006,191.688 70.917,192.797 72.032 M52.997 72.313 L 52.335 73.044 53.067 72.383 C 53.749 71.767,53.902 71.581,53.728 71.581 C 53.689 71.581,53.360 71.911,52.997 72.313 M364.070 86.775 C 364.071 88.261,364.107 88.840,364.151 88.061 C 364.195 87.282,364.195 86.067,364.150 85.360 C 364.106 84.653,364.070 85.290,364.070 86.775 M355.754 108.554 L 355.093 109.285 355.824 108.624 C 356.227 108.261,356.556 107.931,356.556 107.893 C 356.556 107.719,356.370 107.872,355.754 108.554 M210.069 109.398 C 210.069 109.831,210.115 110.008,210.172 109.792 C 210.229 109.575,210.229 109.221,210.172 109.004 C 210.115 108.787,210.069 108.965,210.069 109.398 M36.073 110.636 C 36.075 111.131,36.121 111.307,36.175 111.027 C 36.229 110.747,36.227 110.342,36.170 110.127 C 36.114 109.912,36.070 110.141,36.073 110.636 M353.167 111.142 L 352.392 111.986 353.236 111.211 C 353.700 110.784,354.080 110.404,354.080 110.367 C 354.080 110.195,353.889 110.357,353.167 111.142 M35.894 121.891 C 35.894 127.214,35.923 129.360,35.959 126.659 C 35.995 123.958,35.995 119.602,35.959 116.980 C 35.923 114.357,35.894 116.567,35.894 121.891 M210.290 116.657 L 210.242 119.301 166.629 119.358 L 123.016 119.415 123.002 121.385 L 122.988 123.355 123.067 121.441 L 123.146 119.527 166.701 119.527 C 202.473 119.527,210.276 119.474,210.370 119.231 C 210.432 119.069,210.450 117.828,210.410 116.474 L 210.338 114.012 210.290 116.657 M242.938 119.471 C 259.620 119.503,286.919 119.503,303.602 119.471 C 320.284 119.439,306.635 119.413,273.270 119.413 C 239.904 119.413,226.255 119.439,242.938 119.471 M210.331 126.956 C 210.331 128.751,210.366 129.485,210.409 128.588 C 210.452 127.690,210.452 126.221,210.409 125.324 C 210.366 124.426,210.331 125.160,210.331 126.956 M354.418 133.033 C 355.027 133.652,355.577 134.159,355.639 134.159 C 355.701 134.159,355.252 133.652,354.643 133.033 C 354.033 132.414,353.483 131.908,353.422 131.908 C 353.360 131.908,353.808 132.414,354.418 133.033 M36.073 133.371 C 36.075 133.866,36.121 134.042,36.175 133.762 C 36.229 133.482,36.227 133.077,36.170 132.862 C 36.114 132.647,36.070 132.876,36.073 133.371 M364.070 156.106 C 364.071 157.591,364.107 158.170,364.151 157.391 C 364.195 156.613,364.195 155.397,364.150 154.690 C 364.106 153.983,364.070 154.620,364.070 156.106 M194.809 169.781 L 194.147 170.512 194.879 169.851 C 195.281 169.487,195.611 169.158,195.611 169.119 C 195.611 168.945,195.425 169.099,194.809 169.781 M53.348 171.863 C 54.768 173.286,55.980 174.451,56.042 174.451 C 56.104 174.451,54.993 173.286,53.573 171.863 C 52.154 170.439,50.942 169.274,50.880 169.274 C 50.818 169.274,51.929 170.439,53.348 171.863 M190.421 174.170 L 189.645 175.014 190.490 174.238 C 191.275 173.516,191.437 173.326,191.265 173.326 C 191.228 173.326,190.848 173.706,190.421 174.170 M81.598 187.732 C 81.846 187.839,82.200 187.926,82.386 187.926 C 82.599 187.926,82.557 187.854,82.273 187.732 C 82.026 187.626,81.671 187.539,81.486 187.539 C 81.273 187.539,81.314 187.610,81.598 187.732 M335.228 188.563 C 335.445 188.619,335.799 188.619,336.016 188.563 C 336.232 188.506,336.055 188.460,335.622 188.460 C 335.189 188.460,335.011 188.506,335.228 188.563 M332.752 188.794 C 333.092 188.845,333.649 188.845,333.990 188.794 C 334.330 188.742,334.052 188.700,333.371 188.700 C 332.690 188.700,332.411 188.742,332.752 188.794 M92.240 189.248 C 92.769 189.295,93.580 189.295,94.041 189.246 C 94.502 189.198,94.069 189.159,93.078 189.160 C 92.088 189.161,91.711 189.200,92.240 189.248 M152.110 189.248 C 152.636 189.295,153.497 189.295,154.024 189.248 C 154.550 189.200,154.119 189.161,153.067 189.161 C 152.015 189.161,151.584 189.200,152.110 189.248 " stroke="none" fill="#8cb4cc" fill-rule="evenodd"></path><path id="path3" d="M242.582 53.967 C 258.945 53.999,285.788 53.999,302.233 53.967 C 318.678 53.935,305.290 53.909,272.482 53.909 C 239.674 53.909,226.219 53.935,242.582 53.967 M212.602 86.213 C 212.602 103.731,212.629 110.898,212.662 102.138 C 212.694 93.379,212.694 79.046,212.662 70.287 C 212.629 61.528,212.602 68.694,212.602 86.213 M210.309 112.999 C 210.309 113.680,210.352 113.959,210.403 113.618 C 210.455 113.278,210.455 112.721,210.403 112.380 C 210.352 112.040,210.309 112.319,210.309 112.999 M138.773 123.521 C 180.713 123.675,210.414 123.675,210.320 123.523 C 210.262 123.430,190.596 123.379,166.616 123.409 C 142.636 123.439,130.107 123.489,138.773 123.521 M242.582 123.523 C 258.945 123.555,285.788 123.555,302.233 123.523 C 318.678 123.491,305.290 123.465,272.482 123.465 C 239.674 123.465,226.219 123.491,242.582 123.523 M212.603 156.218 C 212.603 174.108,212.629 181.427,212.662 172.482 C 212.694 163.537,212.694 148.900,212.662 139.955 C 212.629 131.010,212.603 138.329,212.603 156.218 M210.306 131.120 C 210.308 131.739,210.352 131.965,210.404 131.623 C 210.455 131.281,210.454 130.775,210.400 130.498 C 210.347 130.221,210.305 130.501,210.306 131.120 M354.403 179.460 L 353.742 180.191 354.474 179.530 C 355.156 178.914,355.309 178.728,355.135 178.728 C 355.096 178.728,354.767 179.057,354.403 179.460 " stroke="none" fill="#83b4cc" fill-rule="evenodd"></path><path id="path4" d="M332.039 53.880 C 332.091 53.925,332.842 54.017,333.708 54.085 C 334.664 54.159,335.018 54.137,334.609 54.030 C 333.925 53.849,331.867 53.730,332.039 53.880 M108.536 54.418 C 116.543 54.450,129.711 54.450,137.799 54.418 C 145.887 54.385,139.336 54.358,123.241 54.358 C 107.147 54.358,100.530 54.385,108.536 54.418 M335.903 54.404 C 336.120 54.461,336.474 54.461,336.691 54.404 C 336.908 54.347,336.730 54.301,336.297 54.301 C 335.864 54.301,335.687 54.347,335.903 54.404 M91.787 54.633 C 92.067 54.687,92.472 54.685,92.687 54.628 C 92.902 54.572,92.673 54.528,92.178 54.531 C 91.683 54.533,91.507 54.579,91.787 54.633 M153.686 54.633 C 153.965 54.686,154.420 54.686,154.699 54.633 C 154.977 54.579,154.750 54.535,154.192 54.535 C 153.635 54.535,153.407 54.579,153.686 54.633 M339.786 55.149 C 340.034 55.256,340.388 55.343,340.574 55.343 C 340.787 55.343,340.745 55.271,340.461 55.149 C 340.214 55.043,339.859 54.956,339.674 54.956 C 339.461 54.956,339.502 55.027,339.786 55.149 M166.911 56.725 C 167.158 56.831,167.513 56.918,167.698 56.918 C 167.911 56.918,167.870 56.847,167.586 56.725 C 167.338 56.618,166.984 56.531,166.798 56.531 C 166.585 56.531,166.627 56.603,166.911 56.725 M175.802 59.989 C 176.111 60.166,176.466 60.310,176.590 60.310 C 176.714 60.310,176.562 60.166,176.252 59.989 C 175.943 59.812,175.588 59.667,175.464 59.667 C 175.340 59.667,175.492 59.812,175.802 59.989 M354.530 63.590 C 355.328 64.395,356.031 65.053,356.093 65.053 C 356.155 65.053,355.553 64.395,354.755 63.590 C 353.958 62.786,353.254 62.127,353.193 62.127 C 353.131 62.127,353.733 62.786,354.530 63.590 M192.909 71.919 C 193.956 72.971,194.863 73.832,194.925 73.832 C 194.987 73.832,194.181 72.971,193.134 71.919 C 192.088 70.867,191.180 70.006,191.119 70.006 C 191.057 70.006,191.863 70.867,192.909 71.919 M52.997 72.088 L 52.335 72.819 53.067 72.158 C 53.469 71.795,53.799 71.465,53.799 71.427 C 53.799 71.253,53.613 71.406,52.997 72.088 M50.860 74.451 L 50.084 75.295 50.929 74.520 C 51.714 73.798,51.876 73.607,51.704 73.607 C 51.667 73.607,51.287 73.987,50.860 74.451 M363.115 78.334 C 363.115 78.520,363.203 78.875,363.309 79.122 C 363.431 79.406,363.502 79.447,363.502 79.235 C 363.502 79.049,363.415 78.694,363.309 78.447 C 363.187 78.163,363.115 78.121,363.115 78.334 M364.041 82.949 C 364.044 83.444,364.090 83.620,364.143 83.340 C 364.197 83.060,364.195 82.655,364.139 82.440 C 364.083 82.224,364.039 82.454,364.041 82.949 M364.292 86.775 C 364.292 88.014,364.330 88.491,364.376 87.837 C 364.421 87.183,364.421 86.170,364.374 85.586 C 364.328 85.002,364.291 85.537,364.292 86.775 M364.041 90.602 C 364.044 91.097,364.090 91.273,364.143 90.993 C 364.197 90.713,364.195 90.308,364.139 90.093 C 364.083 89.878,364.039 90.107,364.041 90.602 M36.068 108.723 C 36.068 109.156,36.114 109.333,36.171 109.116 C 36.228 108.900,36.228 108.545,36.171 108.329 C 36.114 108.112,36.068 108.289,36.068 108.723 M355.643 108.891 L 354.868 109.736 355.712 108.960 C 356.176 108.533,356.556 108.153,356.556 108.116 C 356.556 107.944,356.366 108.106,355.643 108.891 M210.316 110.411 C 210.317 111.277,210.358 111.604,210.406 111.137 C 210.455 110.670,210.454 109.961,210.404 109.562 C 210.355 109.162,210.315 109.544,210.316 110.411 M35.855 110.636 C 35.857 111.255,35.900 111.481,35.952 111.139 C 36.004 110.797,36.003 110.291,35.949 110.014 C 35.896 109.737,35.853 110.017,35.855 110.636 M353.405 111.086 C 352.858 111.643,352.461 112.099,352.523 112.099 C 352.585 112.099,353.083 111.643,353.630 111.086 C 354.176 110.529,354.573 110.073,354.511 110.073 C 354.449 110.073,353.951 110.529,353.405 111.086 M35.669 121.891 C 35.669 127.338,35.698 129.534,35.734 126.771 C 35.770 124.008,35.770 119.551,35.734 116.867 C 35.698 114.183,35.669 116.443,35.669 121.891 M166.685 119.527 L 123.016 119.642 166.616 119.697 C 195.499 119.734,210.262 119.676,210.355 119.527 C 210.431 119.403,210.462 119.327,210.424 119.358 C 210.386 119.388,190.703 119.464,166.685 119.527 M212.685 119.584 C 212.778 119.677,239.742 119.728,272.606 119.697 L 332.358 119.640 272.437 119.527 C 239.480 119.465,212.592 119.491,212.685 119.584 M334.778 119.457 C 334.994 119.514,335.349 119.514,335.566 119.457 C 335.782 119.401,335.605 119.354,335.172 119.354 C 334.738 119.354,334.561 119.401,334.778 119.457 M332.634 123.516 C 333.034 123.566,333.743 123.567,334.210 123.518 C 334.677 123.470,334.350 123.429,333.483 123.428 C 332.617 123.427,332.235 123.467,332.634 123.516 M354.521 132.864 C 355.453 133.858,355.656 134.037,355.656 133.868 C 355.656 133.832,355.174 133.351,354.586 132.799 L 353.517 131.795 354.521 132.864 M210.316 133.596 C 210.317 134.463,210.358 134.790,210.406 134.322 C 210.455 133.855,210.454 133.146,210.404 132.747 C 210.355 132.347,210.315 132.729,210.316 133.596 M35.852 133.258 C 35.852 133.815,35.896 134.043,35.950 133.765 C 36.003 133.486,36.003 133.030,35.950 132.752 C 35.896 132.473,35.852 132.701,35.852 133.258 M208.692 143.876 C 208.678 144.082,208.608 144.437,208.537 144.664 C 208.414 145.054,208.421 145.055,208.664 144.675 C 208.806 144.454,208.876 144.100,208.820 143.887 C 208.729 143.539,208.716 143.537,208.692 143.876 M363.115 147.665 C 363.115 147.850,363.203 148.205,363.309 148.452 C 363.431 148.736,363.502 148.778,363.502 148.565 C 363.502 148.379,363.415 148.025,363.309 147.777 C 363.187 147.493,363.115 147.452,363.115 147.665 M39.740 151.322 C 39.824 151.601,39.986 151.928,40.099 152.049 C 40.212 152.170,40.191 151.942,40.052 151.542 C 39.767 150.725,39.503 150.539,39.740 151.322 M364.036 152.392 C 364.036 152.825,364.083 153.002,364.139 152.786 C 364.196 152.569,364.196 152.214,364.139 151.998 C 364.083 151.781,364.036 151.958,364.036 152.392 M364.292 156.106 C 364.292 157.344,364.330 157.822,364.376 157.167 C 364.421 156.513,364.421 155.500,364.374 154.916 C 364.328 154.333,364.291 154.868,364.292 156.106 M364.041 159.932 C 364.044 160.428,364.090 160.604,364.143 160.324 C 364.197 160.044,364.195 159.639,364.139 159.423 C 364.083 159.208,364.039 159.437,364.041 159.932 M194.812 170.006 L 193.922 170.962 194.879 170.072 C 195.405 169.583,195.836 169.153,195.836 169.116 C 195.836 168.946,195.640 169.116,194.812 170.006 M53.236 171.975 C 54.469 173.213,55.529 174.226,55.591 174.226 C 55.653 174.226,54.694 173.213,53.461 171.975 C 52.227 170.737,51.168 169.724,51.106 169.724 C 51.044 169.724,52.002 170.737,53.236 171.975 M190.884 173.889 C 190.337 174.446,189.940 174.902,190.002 174.902 C 190.064 174.902,190.562 174.446,191.109 173.889 C 191.655 173.331,192.052 172.876,191.990 172.876 C 191.928 172.876,191.430 173.331,190.884 173.889 M56.050 174.522 C 56.050 174.560,56.379 174.890,56.781 175.253 L 57.513 175.914 56.852 175.183 C 56.235 174.501,56.050 174.348,56.050 174.522 M356.204 177.659 L 355.543 178.391 356.275 177.729 C 356.957 177.113,357.110 176.927,356.936 176.927 C 356.897 176.927,356.568 177.257,356.204 177.659 M353.053 180.810 L 352.392 181.542 353.123 180.881 C 353.805 180.265,353.958 180.079,353.784 180.079 C 353.746 180.079,353.416 180.408,353.053 180.810 M161.508 188.407 C 160.895 188.563,160.885 188.580,161.396 188.590 C 161.705 188.596,162.161 188.514,162.409 188.407 C 162.964 188.169,162.445 188.169,161.508 188.407 M212.685 188.914 C 212.778 189.007,239.641 189.058,272.381 189.027 L 331.908 188.970 272.212 188.858 C 239.379 188.796,212.592 188.821,212.685 188.914 M89.533 189.242 C 89.811 189.295,90.267 189.295,90.546 189.242 C 90.824 189.188,90.597 189.144,90.039 189.144 C 89.482 189.144,89.254 189.188,89.533 189.242 M155.937 189.242 C 156.216 189.295,156.671 189.295,156.950 189.242 C 157.228 189.188,157.001 189.144,156.443 189.144 C 155.886 189.144,155.658 189.188,155.937 189.242 M107.428 189.477 C 116.064 189.509,130.194 189.509,138.829 189.477 C 147.465 189.444,140.400 189.417,123.129 189.417 C 105.858 189.417,98.793 189.444,107.428 189.477 " stroke="none" fill="#65a3bd" fill-rule="evenodd"></path></g></svg>