<?xml version="1.0" encoding="UTF-8" standalone="no"?>
<svg
   version="1.0"
   width="1032pt"
   height="186pt"
   viewBox="0 0 1032 186"
   preserveAspectRatio="xMidYMid"
   id="svg780"
   sodipodi:docname="WAW2.svg"
   inkscape:version="1.2.2 (732a01da63, 2022-12-09)"
   xmlns:inkscape="http://www.inkscape.org/namespaces/inkscape"
   xmlns:sodipodi="http://sodipodi.sourceforge.net/DTD/sodipodi-0.dtd"
   xmlns="http://www.w3.org/2000/svg"
   xmlns:svg="http://www.w3.org/2000/svg">
  <defs
     id="defs784" />
  <sodipodi:namedview
     id="namedview782"
     pagecolor="#ffffff"
     bordercolor="#000000"
     borderopacity="0.25"
     inkscape:showpageshadow="2"
     inkscape:pageopacity="0.0"
     inkscape:pagecheckerboard="0"
     inkscape:deskcolor="#d1d1d1"
     inkscape:document-units="pt"
     showgrid="false"
     inkscape:zoom="1.2936047"
     inkscape:cx="901.35727"
     inkscape:cy="204.85392"
     inkscape:window-width="1920"
     inkscape:window-height="1017"
     inkscape:window-x="-8"
     inkscape:window-y="-8"
     inkscape:window-maximized="1"
     inkscape:current-layer="g778" />
  <g
     transform="matrix(0.1,0,0,-0.1,-2.7000534,307)"
     fill="#000000"
     stroke="none"
     id="g778"
     style="fill:#000000">
    <path
       d="m 4575,2881 c -172,-42 -327,-199 -445,-450 -51,-108 -110,-282 -131,-382 l -12,-61 -77,-6 c -82,-5 -120,-19 -120,-41 0,-19 53,-36 115,-36 h 52 l 6,-77 c 8,-94 27,-161 67,-230 20,-35 37,-53 50,-53 22,0 23,9 40,220 6,74 12,135 13,136 8,5 979,24 987,19 13,-8 13,-128 0,-260 -11,-112 -3,-136 29,-84 24,39 45,127 62,257 14,101 6,92 87,108 33,7 30,57 -5,82 -16,10 -35,21 -44,24 -12,5 -19,32 -28,121 -33,334 -164,592 -342,678 -97,48 -203,60 -304,35 z m 203,-151 c 67,-20 157,-103 200,-184 60,-111 103,-257 127,-423 l 6,-48 h -83 c -144,0 -525,-35 -837,-76 l -44,-6 7,51 c 4,28 18,91 32,139 75,258 244,484 405,542 66,24 119,25 187,5 z"
       id="path728"
       style="fill:#000000" />
    <path
       d="m 2154,2866 c -117,-72 -218,-298 -339,-759 -84,-320 -124,-418 -199,-491 -44,-43 -105,-52 -153,-22 -66,42 -113,187 -133,416 -12,141 -5,212 44,421 24,102 36,176 36,226 0,91 -13,113 -58,104 -69,-16 -117,-98 -181,-311 -126,-418 -200,-591 -303,-700 -91,-98 -147,-120 -223,-86 -103,46 -186,264 -229,601 -26,208 -29,297 -12,402 20,120 20,149 2,173 -13,18 -15,18 -49,-16 -68,-68 -88,-218 -68,-500 27,-365 95,-604 207,-728 67,-75 112,-96 204,-95 66,0 83,4 140,34 115,62 251,217 341,390 l 23,45 8,-80 c 29,-307 135,-458 322,-458 110,0 185,46 272,169 89,125 173,347 309,819 36,127 78,267 91,312 41,133 23,180 -52,134 z"
       id="path730"
       style="fill:#000000" />
    <path
       d="m 8330,2863 c -115,-78 -213,-302 -335,-767 -103,-393 -164,-505 -278,-518 -38,-5 -48,-1 -79,26 -81,71 -122,233 -123,486 0,164 1,176 39,330 43,183 53,303 25,331 -37,36 -112,-13 -158,-104 -10,-20 -40,-107 -65,-192 -120,-395 -191,-569 -281,-682 -105,-134 -217,-158 -300,-67 -135,149 -220,636 -182,1039 10,103 2,122 -38,96 -72,-47 -100,-201 -85,-470 26,-461 123,-747 288,-844 40,-23 58,-27 122,-27 96,0 161,30 260,122 78,72 136,148 203,267 l 44,77 7,-82 c 26,-293 138,-451 321,-453 91,-1 146,26 219,105 128,138 215,357 396,994 28,99 58,198 66,221 9,22 14,60 12,85 -4,54 -26,62 -78,27 z"
       id="path732"
       style="fill:#000000" />
    <path
       d="m 9253,2560 c -17,-7 -36,-22 -42,-34 -7,-12 -13,-128 -17,-293 -6,-251 -8,-279 -30,-346 -28,-84 -76,-182 -97,-201 -41,-33 -45,77 -10,247 19,96 12,107 -71,98 l -59,-6 6,40 c 9,70 -46,94 -97,43 -24,-24 -27,-33 -22,-68 6,-42 7,-55 3,-95 -2,-20 3,-26 25,-28 22,-3 30,2 38,22 6,17 17,26 31,26 18,0 20,-4 14,-27 -31,-122 -29,-237 5,-304 22,-41 36,-49 89,-49 44,0 91,32 130,86 l 26,37 3,-64 c 2,-50 7,-68 23,-81 28,-24 74,-23 99,2 18,18 20,33 20,159 0,139 0,140 26,160 15,12 36,21 47,21 18,0 19,-5 14,-56 -12,-118 29,-225 91,-237 92,-19 189,82 257,266 12,31 24,47 35,47 9,0 44,-18 78,-39 98,-64 152,-181 104,-224 -40,-37 -72,-4 -72,74 0,65 -11,79 -61,79 -115,0 -122,-169 -9,-227 61,-31 121,-30 190,5 70,35 100,78 100,144 0,28 -8,66 -17,85 -20,42 -90,96 -155,120 -27,10 -48,21 -48,24 0,4 28,12 63,18 116,22 165,40 172,62 10,30 -14,78 -47,95 -26,14 -33,13 -96,-15 -78,-34 -140,-50 -195,-51 -53,0 -92,-39 -83,-82 5,-24 -5,-54 -49,-144 -58,-121 -87,-152 -112,-118 -16,22 -17,119 -2,180 9,34 9,47 -1,59 -15,18 -74,20 -119,4 -57,-20 -44,-2 47,65 99,73 152,127 152,155 0,26 -50,44 -97,36 -53,-8 -56,-11 -91,-85 -18,-36 -52,-87 -77,-115 l -46,-50 6,145 c 4,80 10,207 16,284 10,148 6,166 -35,166 -11,-1 -35,-7 -53,-15 z"
       id="path734"
       style="fill:#4d4d4d" />
    <path
       d="m 2832,2543 c -32,-16 -39,-54 -58,-333 -18,-264 -31,-328 -90,-447 -45,-90 -64,-74 -64,57 0,50 5,125 12,169 l 12,79 -28,23 c -28,25 -65,31 -95,14 -14,-7 -22,-3 -39,20 -38,51 -131,59 -197,16 -37,-24 -74,-78 -97,-142 -18,-48 -22,-81 -23,-179 0,-115 1,-123 32,-187 37,-78 75,-108 138,-108 56,0 109,38 141,102 25,49 26,50 40,29 19,-26 65,-51 96,-51 36,0 86,36 117,85 29,45 41,44 41,-4 0,-37 31,-119 54,-144 20,-21 34,-27 67,-27 37,0 48,6 87,46 24,26 57,74 72,107 28,57 29,59 35,31 26,-130 60,-184 115,-184 93,0 165,104 234,336 36,122 36,144 -4,144 -25,0 -32,-13 -70,-120 -43,-124 -96,-240 -110,-240 -22,0 -30,56 -30,213 0,160 19,428 41,580 11,75 11,80 -10,100 -26,27 -93,29 -117,5 -18,-17 -17,-13 -48,-408 -13,-172 -14,-177 -65,-309 -51,-136 -74,-181 -90,-181 -44,0 -41,334 5,734 16,133 16,139 -2,157 -24,24 -72,32 -102,17 z m -388,-494 c 9,-8 16,-17 16,-18 0,-1 5,-27 10,-58 19,-101 -21,-277 -76,-335 -51,-54 -86,-21 -99,93 -21,185 76,392 149,318 z"
       id="path736"
       style="fill:#4d4d4d" />
    <path
       d="m 5815,2395 c -9,-10 -20,-39 -22,-63 l -5,-44 -57,-9 c -43,-7 -57,-13 -60,-28 -5,-27 25,-46 72,-46 h 40 l -8,-122 c -7,-131 -22,-190 -79,-313 -39,-85 -60,-105 -75,-76 -15,28 -13,80 9,206 23,134 21,138 -64,133 l -60,-3 3,44 c 2,28 -2,47 -11,52 -44,29 -108,-19 -108,-82 0,-21 4,-40 10,-44 6,-4 6,-15 -1,-32 -13,-36 -5,-53 26,-53 18,0 28,7 35,25 6,16 17,25 31,25 18,0 20,-4 14,-27 -32,-127 -30,-234 4,-301 22,-44 36,-52 89,-52 48,0 93,32 136,98 l 35,54 7,-29 c 37,-159 128,-189 226,-73 44,51 80,124 118,241 32,98 29,123 -13,117 -24,-4 -24,-4 -84,-142 -51,-118 -82,-164 -103,-151 -10,6 -12,52 -7,229 4,122 10,233 13,247 5,24 12,27 56,31 99,10 106,70 9,76 l -52,3 6,44 c 6,36 3,47 -14,64 -28,28 -91,29 -116,1 z"
       id="path738"
       style="fill:#4d4d4d" />
    <path
       d="m 8507,2161 c -71,-26 -118,-87 -143,-189 -30,-115 1,-235 73,-282 66,-44 173,-36 236,16 108,89 124,303 29,402 -53,56 -130,77 -195,53 z m 103,-121 c 20,-41 24,-64 24,-135 0,-105 -20,-153 -61,-148 -46,5 -66,47 -71,147 -8,176 51,251 108,136 z"
       id="path740"
       style="fill:#4d4d4d" />
  </g>
</svg>
